<svg width="29" height="27" viewBox="0 0 29 27" fill="none" xmlns="http://www.w3.org/2000/svg">
<path d="M14.5001 0.500183C21.3057 0.500205 26.8399 6.31071 26.8399 13.5002C26.8398 20.6896 21.3056 26.5002 14.5001 26.5002C7.69447 26.5002 2.16032 20.6896 2.16022 13.5002C2.16022 6.31069 7.69441 0.500183 14.5001 0.500183Z" fill="white" stroke="black" stroke-width="0.4"/>
<circle cx="14.5" cy="14.6" r="11.9" fill="white" stroke="black" stroke-width="0.4"/>
<ellipse cx="14.5343" cy="14.6" rx="11.6942" ry="9.9" fill="#1C1E26"/>
<ellipse cx="14.5342" cy="12.4" rx="10.3949" ry="7.7" fill="#3E3E3E"/>
<ellipse cx="14.3465" cy="11.52" rx="8.31589" ry="5.28" fill="#D9D9D9"/>
<ellipse cx="13.6248" cy="14.0499" rx="7.92609" ry="5.39" fill="#3E3E3E"/>
<path d="M24.0706 10.9838C24.0706 13.6231 20.5241 15.7627 16.1494 15.7627C11.7746 15.7627 4.9306 16.6882 4.9306 14.0489C4.9306 11.4096 12.5866 6.91125 16.9539 6.69676C21.3212 6.48227 24.0706 8.34443 24.0706 10.9838Z" fill="#3E3E3E"/>
<ellipse cx="22.7201" cy="11.63" rx="1.42929" ry="1.21" fill="#D9D9D9"/>
<ellipse cx="24.0195" cy="13.83" rx="0.909551" ry="0.77" fill="#D9D9D9"/>
<path d="M2.74042 16.9155C1.38395 16.8632 0.300173 15.7496 0.299988 14.3804V12.6196C0.300195 11.2504 1.38398 10.1378 2.74042 10.0854L2.74042 16.9155Z" fill="#E5E5E6" stroke="black" stroke-width="0.2"/>
<path d="M26.2596 10.0845C27.6161 10.1368 28.6998 11.2504 28.7 12.6196V14.3804C28.6998 15.7496 27.616 16.8622 26.2596 16.9146V10.0845Z" fill="#E5E5E6" stroke="black" stroke-width="0.2"/>
</svg>
