<svg width="33" height="33" viewBox="0 0 33 33" fill="none" xmlns="http://www.w3.org/2000/svg">
<circle cx="16.5" cy="16.5" r="16.5" fill="#628CF6"/>
<path d="M16.5001 3.50018C23.3057 3.50021 28.8399 9.31071 28.8399 16.5002C28.8398 23.6896 23.3056 29.5002 16.5001 29.5002C9.69447 29.5002 4.16032 23.6896 4.16022 16.5002C4.16022 9.31069 9.69441 3.50018 16.5001 3.50018Z" fill="white" stroke="black" stroke-width="0.4"/>
<circle cx="16.5" cy="17.6" r="11.9" fill="white" stroke="black" stroke-width="0.4"/>
<ellipse cx="16.5343" cy="17.6" rx="11.6942" ry="9.9" fill="#1C1E26"/>
<ellipse cx="16.5342" cy="15.4" rx="10.3949" ry="7.7" fill="#3E3E3E"/>
<ellipse cx="16.3465" cy="14.52" rx="8.31589" ry="5.28" fill="#D9D9D9"/>
<ellipse cx="15.6248" cy="17.0499" rx="7.92609" ry="5.39" fill="#3E3E3E"/>
<path d="M26.0706 13.9838C26.0706 16.6231 22.5241 18.7627 18.1494 18.7627C13.7746 18.7627 6.9306 19.6882 6.9306 17.0489C6.9306 14.4096 14.5866 9.91125 18.9539 9.69676C23.3212 9.48227 26.0706 11.3444 26.0706 13.9838Z" fill="#3E3E3E"/>
<ellipse cx="24.7201" cy="14.63" rx="1.42929" ry="1.21" fill="#D9D9D9"/>
<ellipse cx="26.0195" cy="16.83" rx="0.909551" ry="0.77" fill="#D9D9D9"/>
<path d="M4.74042 19.9155C3.38395 19.8632 2.30017 18.7496 2.29999 17.3804V15.6196C2.3002 14.2504 3.38398 13.1378 4.74042 13.0854L4.74042 19.9155Z" fill="#E5E5E6" stroke="black" stroke-width="0.2"/>
<path d="M28.2596 13.0845C29.6161 13.1368 30.6998 14.2504 30.7 15.6196V17.3804C30.6998 18.7496 29.616 19.8622 28.2596 19.9146V13.0845Z" fill="#E5E5E6" stroke="black" stroke-width="0.2"/>
</svg>
