<svg width="22" height="29" viewBox="0 0 22 29" fill="none" xmlns="http://www.w3.org/2000/svg">
<path d="M10.4214 14.3618C10.1349 13.4645 10.1406 11.7317 10.3068 11.7317C10.788 11.7317 10.7422 13.801 10.4214 14.3618ZM10.324 17.0087C9.88281 18.1415 9.33281 19.4369 8.69688 20.5249C9.74531 20.1323 10.9312 19.5603 12.3005 19.2967C11.5729 18.7584 10.874 17.9845 10.324 17.0087ZM4.93281 24.0074C4.93281 24.0522 5.68906 23.7045 6.93229 21.753C6.54844 22.1063 5.2651 23.1269 4.93281 24.0074ZM14.2083 8.97262H22V27.3665C22 28.1123 21.387 28.7124 20.625 28.7124H1.375C0.613021 28.7124 0 28.1123 0 27.3665V1.34589C0 0.600044 0.613021 0 1.375 0H12.8333V7.62673C12.8333 8.36697 13.4521 8.97262 14.2083 8.97262ZM13.75 18.607C12.6042 17.9228 11.8422 16.9807 11.3036 15.5899C11.5615 14.5525 11.9682 12.9767 11.6589 11.9897C11.3896 10.3409 9.22969 10.5036 8.92031 11.6083C8.63385 12.6346 8.8974 14.0814 9.38438 15.9264C8.71979 17.4742 7.7401 19.5491 7.04688 20.738C7.04115 20.738 7.04115 20.7436 7.03542 20.7436C5.48281 21.5231 2.81875 23.2391 3.91302 24.5569C4.23385 24.9439 4.82969 25.1177 5.14479 25.1177C6.17031 25.1177 7.1901 24.1083 8.64531 21.6521C10.1234 21.1754 11.7448 20.5809 13.1714 20.351C14.4146 21.0128 15.8698 21.4446 16.838 21.4446C18.5109 21.4446 18.6255 19.65 17.9667 19.0107C17.1703 18.2481 14.8557 18.4668 13.75 18.607ZM21.599 5.88828L15.9844 0.392552C15.7266 0.140197 15.3771 0 15.0104 0H14.6667V7.1781H22V6.83601C22 6.48272 21.8568 6.14064 21.599 5.88828ZM17.3536 20.2052C17.5885 20.0538 17.2104 19.5379 14.9016 19.7005C17.0271 20.5866 17.3536 20.2052 17.3536 20.2052Z" fill="#FFCA28"/>
</svg>
