<svg width="29" height="28" viewBox="0 0 29 28" fill="none" xmlns="http://www.w3.org/2000/svg">
<path d="M10.0259 22.1054C10.0259 22.2166 9.89721 22.3056 9.73494 22.3056C9.55028 22.3223 9.42158 22.2333 9.42158 22.1054C9.42158 21.9941 9.55028 21.9051 9.71256 21.9051C9.88043 21.8884 10.0259 21.9774 10.0259 22.1054ZM8.28565 21.8551C8.24648 21.9663 8.3584 22.0943 8.52627 22.1276C8.67176 22.1833 8.83963 22.1276 8.8732 22.0164C8.90678 21.9051 8.80046 21.7772 8.63259 21.7271C8.4871 21.6882 8.32482 21.7438 8.28565 21.8551ZM10.759 21.7605C10.5967 21.7994 10.4848 21.9051 10.5016 22.0331C10.5183 22.1443 10.6638 22.2166 10.8317 22.1777C10.994 22.1388 11.1059 22.0331 11.0891 21.9218C11.0723 21.8161 10.9212 21.7438 10.759 21.7605ZM14.4409 0.445007C6.67969 0.445007 0.742645 6.30232 0.742645 14.0175C0.742645 20.1863 4.64845 25.4651 10.2274 27.323C10.9436 27.4509 11.1954 27.0115 11.1954 26.6499C11.1954 26.3051 11.1786 24.4027 11.1786 23.2346C11.1786 23.2346 7.26164 24.0689 6.43907 21.5769C6.43907 21.5769 5.80116 19.9583 4.88347 19.5411C4.88347 19.5411 3.60205 18.6678 4.973 18.6844C4.973 18.6844 6.36633 18.7957 7.13294 20.1196C8.3584 22.2667 10.412 21.6493 11.2122 21.2821C11.3409 20.3921 11.7046 19.7747 12.1075 19.4076C8.97952 19.0627 5.82354 18.6121 5.82354 13.261C5.82354 11.7313 6.24882 10.9637 7.14413 9.9847C6.99864 9.62313 6.52301 8.13238 7.28962 6.20776C8.45912 5.8462 11.1507 7.70963 11.1507 7.70963C12.2698 7.39813 13.4729 7.23682 14.6648 7.23682C15.8566 7.23682 17.0597 7.39813 18.1789 7.70963C18.1789 7.70963 20.8704 5.84063 22.0399 6.20776C22.8065 8.13795 22.3309 9.62313 22.1854 9.9847C23.0807 10.9693 23.6291 11.7369 23.6291 13.261C23.6291 18.6288 20.3332 19.0571 17.2052 19.4076C17.72 19.847 18.1565 20.6814 18.1565 21.9886C18.1565 23.8631 18.1397 26.1827 18.1397 26.6388C18.1397 27.0004 18.3971 27.4398 19.1077 27.3119C24.7034 25.4651 28.4973 20.1863 28.4973 14.0175C28.4973 6.30232 22.2022 0.445007 14.4409 0.445007ZM6.18167 19.6301C6.10892 19.6857 6.12571 19.8136 6.22084 19.9193C6.31037 20.0083 6.43907 20.0473 6.51182 19.9749C6.58456 19.9193 6.56777 19.7914 6.47265 19.6857C6.38311 19.5967 6.25441 19.5578 6.18167 19.6301ZM5.57733 19.1795C5.53816 19.2518 5.59412 19.3408 5.70603 19.3964C5.79557 19.4521 5.90748 19.4354 5.94665 19.3575C5.98582 19.2852 5.92986 19.1962 5.81795 19.1406C5.70603 19.1072 5.6165 19.1239 5.57733 19.1795ZM7.39034 21.1598C7.30081 21.2321 7.33438 21.3989 7.46308 21.5046C7.59179 21.6326 7.75406 21.6493 7.82681 21.5603C7.89955 21.4879 7.86598 21.3211 7.75406 21.2154C7.63096 21.0874 7.46308 21.0708 7.39034 21.1598ZM6.75243 20.3421C6.6629 20.3977 6.6629 20.5423 6.75243 20.6703C6.84196 20.7982 6.99305 20.8538 7.06579 20.7982C7.15532 20.7259 7.15532 20.5813 7.06579 20.4533C6.98745 20.3254 6.84196 20.2698 6.75243 20.3421Z" fill="#F6F8FF"/>
</svg>
