<svg width="28" height="29" viewBox="0 0 28 29" fill="none" xmlns="http://www.w3.org/2000/svg">
<path d="M26 0H1.99375C0.89375 0 0 0.929307 0 2.07011V26.6423C0 27.7831 0.89375 28.7124 1.99375 28.7124H26C27.1 28.7124 28 27.7831 28 26.6423V2.07011C28 0.929307 27.1 0 26 0ZM8.4625 24.6106H4.3125V10.9081H8.46875V24.6106H8.4625ZM6.3875 9.03671C5.05625 9.03671 3.98125 7.92795 3.98125 6.56924C3.98125 5.21053 5.05625 4.10177 6.3875 4.10177C7.7125 4.10177 8.79375 5.21053 8.79375 6.56924C8.79375 7.93436 7.71875 9.03671 6.3875 9.03671ZM24.0187 24.6106H19.8687V17.9452C19.8687 16.3558 19.8375 14.3113 17.7125 14.3113C15.55 14.3113 15.2188 16.0418 15.2188 17.8299V24.6106H11.0687V10.9081H15.05V12.7796H15.1062C15.6625 11.7029 17.0187 10.5685 19.0375 10.5685C23.2375 10.5685 24.0187 13.4077 24.0187 17.0992V24.6106Z" fill="#F6F8FF"/>
</svg>
