<svg width="250" height="260" viewBox="0 0 250 260" fill="none" xmlns="http://www.w3.org/2000/svg">
<g filter="url(#filter0_d_2036_324)">
<path d="M125.002 0.5C193.763 0.500095 249.504 56.2406 249.504 125C249.504 193.759 193.763 249.5 125.002 249.5C56.242 249.5 0.500458 193.759 0.500458 125C0.500458 56.2406 56.242 0.5 125.002 0.5Z" fill="#2F27CE" stroke="black"/>
<path d="M75.0013 142H176.003C180.974 142 185.003 146.03 185.003 151V224.892C185.003 229.547 181.453 233.434 176.817 233.854L131.91 237.929C131.415 237.974 130.917 237.978 130.422 237.94L74.3265 233.724C69.631 233.371 66.0014 229.458 66.0013 224.749V151C66.0013 146.029 70.0308 142 75.0013 142Z" fill="#F6F8FF" stroke="black" stroke-width="2"/>
<path d="M125.155 153C146.062 153 165.794 161.916 180.304 174.856C194.646 187.647 203.768 204.258 203.997 219.898C184.874 229.949 178.463 233.255 170.818 235.284C166.948 236.311 162.755 237.012 156.402 238.077C150.062 239.14 141.62 240.559 129.307 243.02C105.634 247.751 87.6575 240.692 47.007 219.891C47.2546 205.55 56.1971 188.957 70.3663 175.844C84.7147 162.565 104.271 153 125.155 153Z" fill="#F6F8FF" stroke="black" stroke-width="2"/>
<path d="M125.999 206C147.95 206 167.389 206.614 181.325 208.598C188.304 209.591 193.823 210.918 197.572 212.64C201.067 214.245 202.729 216.046 202.971 217.994C184.789 230.494 176.36 235.706 167.171 238.451C162.536 239.836 157.681 240.601 151.232 241.332C148.007 241.697 144.398 242.052 140.225 242.474C136.055 242.895 131.33 243.381 125.885 244.007C83.3756 248.892 56.0542 226.252 47.5226 218.092C47.7293 216.124 49.4529 214.285 53.1534 212.645C57.0461 210.919 62.7558 209.592 69.922 208.599C84.2342 206.615 104.049 206 125.999 206Z" fill="#D9D9D9" stroke="black" stroke-width="2"/>
<path d="M125.499 66.5C156.08 66.5001 181 92.618 181 125C181 157.382 156.08 183.5 125.499 183.5C94.9188 183.5 69.9985 157.382 69.9985 125C69.9985 92.6179 94.9188 66.5 125.499 66.5Z" fill="white" stroke="black" stroke-width="3"/>
<path d="M125.499 76.5C155.047 76.5001 179 100.453 179 130C179 159.547 155.047 183.5 125.499 183.5C95.9518 183.5 71.9985 159.547 71.9985 130C71.9985 100.453 95.9518 76.5 125.499 76.5Z" fill="white" stroke="black" stroke-width="3"/>
<ellipse cx="125.655" cy="130" rx="53.1563" ry="45" fill="#1C1E26"/>
<ellipse cx="125.655" cy="120" rx="47.2501" ry="35" fill="#3E3E3E"/>
<ellipse cx="124.802" cy="116" rx="37.8001" ry="24" fill="#D9D9D9"/>
<ellipse cx="121.521" cy="127.5" rx="36.0282" ry="24.5" fill="#3E3E3E"/>
<path d="M169.003 113.563C169.003 125.56 152.882 135.285 132.997 135.285C113.111 135.285 82.0016 139.492 82.0016 127.495C82.0016 115.498 116.802 95.0513 136.654 94.0764C156.505 93.1014 169.003 101.566 169.003 113.563Z" fill="#3E3E3E"/>
<ellipse cx="162.864" cy="116.5" rx="6.49688" ry="5.5" fill="#D9D9D9"/>
<ellipse cx="168.771" cy="126.5" rx="4.13438" ry="3.5" fill="#D9D9D9"/>
<path d="M70.4985 140C65.528 140 61.4985 135.971 61.4985 131V119C61.4985 114.029 65.528 110 70.4985 110H71.4985V140H70.4985Z" fill="#E5E5E6" stroke="black" stroke-width="2"/>
<path d="M180.5 110C185.471 110 189.5 114.029 189.5 119V131C189.5 135.971 185.471 140 180.5 140H179.5V110H180.5Z" fill="#E5E5E6" stroke="black" stroke-width="2"/>
<path d="M71.8891 190H178.629C181.093 190 182.971 192.205 182.579 194.637L176.485 232.433C176.254 233.866 175.25 235.07 173.881 235.552C153.792 242.632 138.584 246.086 123.473 246.07C108.361 246.055 93.2675 242.569 73.4057 235.642C71.9176 235.123 70.873 233.76 70.7543 232.186L67.9008 194.301C67.726 191.98 69.5617 190 71.8891 190Z" fill="#282727" stroke="black" stroke-width="2"/>
<path d="M70.3573 213C114.534 234.489 138.205 234.362 178.503 213L175.003 236C134.773 252.218 111.722 251.273 71.5015 234L70.3573 213Z" fill="#282727"/>
<ellipse cx="125.999" cy="220.5" rx="7.50011" ry="7.5" fill="#B18C19"/>
<path d="M133.502 220.5C133.502 224.09 129.592 226 126.002 226C122.412 226 118.502 224.09 118.502 220.5C118.502 216.91 121.332 213 126.002 213C130.672 213 133.502 216.91 133.502 220.5Z" fill="#FFDA4B"/>
<path d="M126.002 213.15C128.466 213.15 130.299 213.976 131.517 215.298C132.736 216.622 133.353 218.458 133.353 220.5C133.353 224.559 130.061 227.85 126.002 227.85C121.943 227.85 118.652 224.559 118.652 220.5C118.652 218.458 119.268 216.622 120.487 215.298C121.705 213.976 123.538 213.15 126.002 213.15Z" stroke="black" stroke-width="0.3"/>
<path d="M125.002 2.5C192.658 2.50009 247.504 57.3452 247.504 125C247.504 192.655 192.658 247.5 125.002 247.5C57.3465 247.5 2.50046 192.655 2.50046 125C2.50046 57.3452 57.3465 2.5 125.002 2.5Z" stroke="black" stroke-width="5"/>
</g>
<defs>
<filter id="filter0_d_2036_324" x="0.000457764" y="0" width="250.004" height="260" filterUnits="userSpaceOnUse" color-interpolation-filters="sRGB">
<feFlood flood-opacity="0" result="BackgroundImageFix"/>
<feColorMatrix in="SourceAlpha" type="matrix" values="0 0 0 0 0 0 0 0 0 0 0 0 0 0 0 0 0 0 127 0" result="hardAlpha"/>
<feOffset dy="10"/>
<feComposite in2="hardAlpha" operator="out"/>
<feColorMatrix type="matrix" values="0 0 0 0 0 0 0 0 0 0 0 0 0 0 0 0 0 0 0.5 0"/>
<feBlend mode="normal" in2="BackgroundImageFix" result="effect1_dropShadow_2036_324"/>
<feBlend mode="normal" in="SourceGraphic" in2="effect1_dropShadow_2036_324" result="shape"/>
</filter>
</defs>
</svg>
